<?xml version="1.0" encoding="UTF-8" standalone="no"?>
<!DOCTYPE svg PUBLIC "-//W3C//DTD SVG 1.1//EN" "http://www.w3.org/Graphics/SVG/1.1/DTD/svg11.dtd">
<svg width="100%" height="100%" viewBox="0 0 431 459" version="1.1" xmlns="http://www.w3.org/2000/svg" xmlns:xlink="http://www.w3.org/1999/xlink" xml:space="preserve" xmlns:serif="http://www.serif.com/" style="fill-rule:evenodd;clip-rule:evenodd;stroke-linecap:round;stroke-linejoin:round;stroke-miterlimit:1.5;">
    <g transform="matrix(1,0,0,1,-56,-31)">
        <g id="Knight" transform="matrix(5.46636,0,0,5.46636,-562.182,-559.476)">
            <path d="M120,180C117.332,180.706 115,182.24 115,185C115,187.76 117.24,190 120,190L180,190C182.76,190 185,187.76 185,185C185,182.24 182.76,180 180,180C180,180 190.009,170.141 190,150C189.991,129.859 170.032,108.903 140,110L140,120C140,120 133.766,132.114 120,140C112.577,144.252 117.886,149.925 120,150C131.02,150.392 145,145 145,145C145,145 141.225,174.379 120,180Z" style="fill:white;stroke:black;stroke-width:3.66px;"/>
            <g transform="matrix(1,0,0,1,-7.08115,4.03159)">
                <path d="M189.85,154.03C189.934,152.736 189.981,151.393 190,150C190.211,134.282 183.552,124.284 167.995,116.26" style="fill:white;stroke:black;stroke-width:3.66px;"/>
            </g>
            <g transform="matrix(1,0,0,1,-685,-17)">
                <path d="M830,145L830.041,145" style="fill:none;stroke:black;stroke-width:3.66px;"/>
            </g>
        </g>
    </g>
</svg>
